# xmcd
#
# Track frame offsets:
#	150
#	3192
#	17857
#	33090
#	45517
#	59110
#	80905
#	95382
#	114035
#	135772
#	151640
#	175340
#	194717
#
# Disc length: 2925 seconds
#
# Revision: 0
# Processed by: cddbd v1.5.1PL2 Copyright (c) Steve Scherf et al.
# Submitted via: dBpowerAMP V4.0
#
DISCID=980b6b0d
DTITLE=Evernauts - The Northern Country
DYEAR=2004
DGENRE=Country
TTITLE0=Intro
TTITLE1=Queen Of Always
TTITLE2=Clean Living
TTITLE3=Do That Again
TTITLE4=Jawdrum
TTITLE5=Out Of Season
TTITLE6=This Way Up
TTITLE7=So Much Love
TTITLE8=Enjoy Your Night
TTITLE9=Strings
TTITLE10=Fly
TTITLE11=Carousel
TTITLE12=Monochrome
EXTD=One would believe that building a studio and then recording an album in a cottage, half-way up a mountain, in England's Lake District, would be enough struggle for one band's lifetime. \nNot so for the evernauts. After completing work on their debu
EXTD=t record the band members spread themselves over the globe in search of inspiration for their new songs. \n\nCurrently dividing their time between Wellington NZ, Boston MA and their hometown of York, England the evernauts are attempting to create t
EXTD=heir new record via email and the vagaries of the world-wide web. 
EXTT0=
EXTT1=
EXTT2=
EXTT3=
EXTT4=
EXTT5=
EXTT6=
EXTT7=
EXTT8=
EXTT9=
EXTT10=
EXTT11=
EXTT12=
PLAYORDER=
